<mxfile host="app.diagrams.net" modified="2021-07-18T13:20:51.510Z" agent="5.0 (X11; Linux x86_64) AppleWebKit/537.36 (KHTML, like Gecko) Chrome/91.0.4472.164 Safari/537.36" etag="34Rj6Nzl6pGDbH4USdOw" version="14.9.0" type="github">
  <diagram id="X41FS89OIwTffToykbN8" name="Page-1">
    <mxGraphModel dx="1422" dy="805" grid="1" gridSize="10" guides="1" tooltips="1" connect="1" arrows="1" fold="1" page="1" pageScale="1" pageWidth="827" pageHeight="1169" math="0" shadow="0">
      <root>
        <mxCell id="0" />
        <mxCell id="1" parent="0" />
        <mxCell id="dlOP5NZsnmyqPmWhvy-y-5" style="edgeStyle=orthogonalEdgeStyle;rounded=0;orthogonalLoop=1;jettySize=auto;html=1;" edge="1" parent="1" source="dlOP5NZsnmyqPmWhvy-y-1" target="dlOP5NZsnmyqPmWhvy-y-4">
          <mxGeometry relative="1" as="geometry" />
        </mxCell>
        <mxCell id="dlOP5NZsnmyqPmWhvy-y-1" value="&lt;b&gt;/landing/language&lt;/b&gt;" style="rounded=0;whiteSpace=wrap;html=1;" vertex="1" parent="1">
          <mxGeometry x="40" y="55" width="170" height="50" as="geometry" />
        </mxCell>
        <mxCell id="dlOP5NZsnmyqPmWhvy-y-6" style="edgeStyle=orthogonalEdgeStyle;rounded=0;orthogonalLoop=1;jettySize=auto;html=1;" edge="1" parent="1" source="dlOP5NZsnmyqPmWhvy-y-4" target="dlOP5NZsnmyqPmWhvy-y-7">
          <mxGeometry relative="1" as="geometry">
            <mxPoint x="530" y="40" as="targetPoint" />
          </mxGeometry>
        </mxCell>
        <mxCell id="dlOP5NZsnmyqPmWhvy-y-14" style="edgeStyle=orthogonalEdgeStyle;rounded=0;orthogonalLoop=1;jettySize=auto;html=1;entryX=0;entryY=0.5;entryDx=0;entryDy=0;" edge="1" parent="1" source="dlOP5NZsnmyqPmWhvy-y-4" target="dlOP5NZsnmyqPmWhvy-y-13">
          <mxGeometry relative="1" as="geometry" />
        </mxCell>
        <mxCell id="dlOP5NZsnmyqPmWhvy-y-4" value="TextContext" style="whiteSpace=wrap;html=1;aspect=fixed;" vertex="1" parent="1">
          <mxGeometry x="340" y="37.5" width="85" height="85" as="geometry" />
        </mxCell>
        <mxCell id="dlOP5NZsnmyqPmWhvy-y-15" style="edgeStyle=orthogonalEdgeStyle;rounded=0;orthogonalLoop=1;jettySize=auto;html=1;" edge="1" parent="1" source="dlOP5NZsnmyqPmWhvy-y-7" target="dlOP5NZsnmyqPmWhvy-y-8">
          <mxGeometry relative="1" as="geometry" />
        </mxCell>
        <mxCell id="dlOP5NZsnmyqPmWhvy-y-7" value="&lt;span&gt;TextContext checks if there is language set in LocalStorage. If not, it sets to the default language: &quot;en-US&quot;&lt;/span&gt;" style="rounded=1;whiteSpace=wrap;html=1;" vertex="1" parent="1">
          <mxGeometry x="282.5" y="170" width="200" height="80" as="geometry" />
        </mxCell>
        <mxCell id="dlOP5NZsnmyqPmWhvy-y-8" value="&lt;span&gt;TextContext retrieves &quot;texts&quot; from Contentful with the selected or pre-selected language/locale&lt;/span&gt;" style="rounded=1;whiteSpace=wrap;html=1;" vertex="1" parent="1">
          <mxGeometry x="282.5" y="280" width="200" height="80" as="geometry" />
        </mxCell>
        <mxCell id="dlOP5NZsnmyqPmWhvy-y-13" value="Exposes a &quot;setLanguageData&quot; method which changes the locale. Changing the locale triggers re-fetching locale specific data from Contentful" style="shape=process;whiteSpace=wrap;html=1;backgroundOutline=1;" vertex="1" parent="1">
          <mxGeometry x="520" y="32.5" width="230" height="95" as="geometry" />
        </mxCell>
        <mxCell id="dlOP5NZsnmyqPmWhvy-y-16" value="&quot;texts&quot; are piped through i18next. This brings certain advantages of the &quot;t()&quot; method the package exports.&lt;br&gt;(See the image below)" style="rounded=1;whiteSpace=wrap;html=1;" vertex="1" parent="1">
          <mxGeometry x="280" y="390" width="200" height="60" as="geometry" />
        </mxCell>
      </root>
    </mxGraphModel>
  </diagram>
</mxfile>
